<?xml version="1.0" encoding="UTF-8" standalone="no"?>
<svg
   width="885"
   height="936"
   fill="none"
   version="1.1"
   id="svg77"
   sodipodi:docname="badge.svg"
   xml:space="preserve"
   inkscape:export-filename="ngrx-signal-broadcast-sync-github.png"
   inkscape:export-xdpi="32.820515"
   inkscape:export-ydpi="32.820515"
   inkscape:version="1.2.2 (b0a8486541, 2022-12-01)"
   xmlns:inkscape="http://www.inkscape.org/namespaces/inkscape"
   xmlns:sodipodi="http://sodipodi.sourceforge.net/DTD/sodipodi-0.dtd"
   xmlns:xlink="http://www.w3.org/1999/xlink"
   xmlns="http://www.w3.org/2000/svg"
   xmlns:svg="http://www.w3.org/2000/svg"
   xmlns:rdf="http://www.w3.org/1999/02/22-rdf-syntax-ns#"
   xmlns:cc="http://creativecommons.org/ns#"><sodipodi:namedview
     id="namedview79"
     pagecolor="#ffffff"
     bordercolor="#000000"
     borderopacity="0.25"
     inkscape:showpageshadow="2"
     inkscape:pageopacity="0.0"
     inkscape:pagecheckerboard="0"
     inkscape:deskcolor="#d1d1d1"
     showgrid="false"
     showguides="true"
     inkscape:lockguides="true"
     inkscape:zoom="0.86004274"
     inkscape:cx="417.42112"
     inkscape:cy="468"
     inkscape:window-width="1854"
     inkscape:window-height="1011"
     inkscape:window-x="0"
     inkscape:window-y="0"
     inkscape:window-maximized="1"
     inkscape:current-layer="svg77"><sodipodi:guide
       position="581.36646,774.38012"
       orientation="0,-1"
       id="guide1210"
       inkscape:locked="true" /><sodipodi:guide
       position="581.36646,775.54286"
       orientation="1,0"
       id="guide1212"
       inkscape:locked="true" /><sodipodi:guide
       position="755.7764,336.02981"
       orientation="0,-1"
       id="guide1214"
       inkscape:locked="true" /><sodipodi:guide
       position="756.93913,338.35528"
       orientation="1,0"
       id="guide1216"
       inkscape:locked="true" /></sodipodi:namedview><defs
     id="defs71"><radialGradient
       id="a"
       cx="0"
       cy="0"
       r="1"
       gradientTransform="matrix(0 507.22601 -479.57501 0 442.9857483 427.93551636)"
       gradientUnits="userSpaceOnUse"><stop
         stop-color="#aa1bb6"
         id="stop61" /><stop
         offset="1"
         stop-color="#452070"
         id="stop63" /></radialGradient><radialGradient
       id="b"
       cx="0"
       cy="0"
       r="1"
       gradientTransform="matrix(314.00042,156.99986,-140.10327,280.20717,1160.7906,428.95439)"
       gradientUnits="userSpaceOnUse"><stop
         offset=".271"
         stop-color="#b1219b"
         id="stop66" /><stop
         offset="1"
         stop-color="#5306A1"
         id="stop68" /></radialGradient><radialGradient
       id="b-3"
       cx="0"
       cy="0"
       r="1"
       gradientTransform="matrix(314.00042,156.99986,-140.10327,280.20717,1160.7906,428.95439)"
       gradientUnits="userSpaceOnUse"><stop
         offset=".271"
         stop-color="#b1219b"
         id="stop66-6" /><stop
         offset="1"
         stop-color="#5306A1"
         id="stop68-7" /></radialGradient><radialGradient
       inkscape:collect="always"
       xlink:href="#b"
       id="radialGradient1206"
       cx="50.000183"
       cy="51.450047"
       fx="50.000183"
       fy="51.450047"
       r="43"
       gradientTransform="matrix(1.2587238,0.53102442,-0.52066946,1.2341788,13.852232,-38.599824)"
       gradientUnits="userSpaceOnUse" /></defs><path
     fill="url(#a)"
     d="m884.66201 156.28199-31.932 501.024-305.308-656.962 337.24 155.938zm-211.467 647.85-230.693 131.524-230.697-131.524 13.041-76.656h435.323l13.026 76.656zm-641.251-146.826-31.606-501.024 337.241-155.938-305.635 656.962z"
     id="path73" /><g
     id="g456"
     transform="matrix(5.8139534,0,0,5.8139534,151.80127,168.87184)"><g
       id="g418"><path
         id="path416"
         d="m 71.899858,12.09999 -3.099923,5.199908 c 11.199989,6.699993 18.200239,18.900203 18.200239,31.90019 0,13.299987 -7.200246,25.699873 -18.900234,32.299866 l 3.000192,5.199908 c 13.499987,-7.699993 21.900051,-21.999896 21.900051,-37.59988 0,-15.099985 -8.100338,-29.299999 -21.100325,-36.999992 z M 28.100132,12.200097 C 15.100145,19.900089 7.0001823,34.100103 7.0001823,49.200088 c 0,15.499985 8.3996897,29.799781 21.8996757,37.499774 l 2.900085,-5.300014 C 20.199955,74.899854 12.999816,62.500075 12.999816,49.200088 c 0,-12.999987 7.00025,-25.20009 18.200239,-31.800084 z m 7.49973,12.999956 c -8.399992,4.999995 -13.599845,14.200045 -13.599845,24.000035 0,10.19999 5.499955,19.499822 14.399946,24.499817 l 2.900085,-5.300014 C 32.300055,64.499895 28.000025,57.20008 28.000025,49.200088 c 0,-7.799992 4.000141,-14.800238 10.700135,-18.900234 z m 28.800266,0.100107 -3.100298,5.099801 c 6.699994,3.999996 10.700135,11.099866 10.700135,18.899859 0,7.899992 -4.30003,15.300181 -11.300023,19.200178 l 2.900085,5.199907 C 72.500018,68.69991 77.999973,59.39981 77.999973,49.29982 c 0,-9.799991 -5.199853,-18.999665 -13.599845,-23.99966 z M 50.000182,39.199949 a 10,10 0 0 0 -10.000139,10.000139 10,10 0 0 0 6.621643,9.40775 l -5.72181,27.792079 c -0.5,2.299998 1.300082,4.400182 3.60008,4.400182 h 11.000078 c 2.299998,0 4.099812,-2.200184 3.699812,-4.400182 L 53.470912,58.572969 a 10,10 0 0 0 6.529035,-9.372881 10,10 0 0 0 -9.999765,-10.000139 z"
         style="font-variation-settings:normal;opacity:1;vector-effect:none;fill:url(#radialGradient1206);fill-opacity:1;stroke-width:0.191964;stroke-linecap:butt;stroke-linejoin:miter;stroke-miterlimit:4;stroke-dasharray:none;stroke-dashoffset:0;stroke-opacity:1;-inkscape-stroke:none;stop-color:#000000;stop-opacity:1" /></g><g
       id="g422" /><g
       id="g426" /><g
       id="g430" /><g
       id="g436" /></g><metadata
     id="metadata1268"><rdf:RDF><cc:Work
         rdf:about="" /></rdf:RDF></metadata></svg>
